<svg id="Logo_Blanc" xmlns="http://www.w3.org/2000/svg" viewBox="0 0 161.79 177.9"><defs><style>.cls-1{fill:#282e67;}.cls-2{fill:#fff;stroke:#282e67;stroke-miterlimit:10;}</style></defs><g id="B"><path class="cls-1" d="M97.93,63.45l1.93.09c-.9,15.11-6.4,39.53-13.38,65.73l24-16.81c4.66-16.29,8.22-31.53,8.39-35.31q.3-6.8-6.14-14.53a161.7,161.7,0,0,1,28.07-1.72q11.49.51,19.39,5.44a19.62,19.62,0,0,1,6.33,7.13l17.65-12.36a37.88,37.88,0,0,0-11.79-10q-18-10.22-51.83-11.72-14.52-.64-24.93,2T85,48.26q-.15,3.47,4.2,9.23C92.12,61.34,95,63.33,97.93,63.45Z" transform="translate(-47.11 -39.3)"/><path class="cls-1" d="M161.6,119c8.06-3.84,14-6.68,19.11-11.75q12.22-12.14,12.23-27a21.6,21.6,0,0,0-.36-4.75L150,118.89Z" transform="translate(-47.11 -39.3)"/><path class="cls-1" d="M101.4,146.81l-19.81-.27c-1.11,3.83-1.87,6.34-3.11,10.36q-5.81,19.32-5.81,23.52c0,1.49-.13,1.76.33,2.8l25.79-26.41C100,152.3,100,152.18,101.4,146.81Z" transform="translate(-47.11 -39.3)"/><path class="cls-1" d="M177.26,133.8a14.51,14.51,0,0,0-2-1.28l-15.43,11c5.52,2.27,9.57,5.77,9.57,9.86q0,9.16-13.08,18.57t-32,15.23c-12.59,3.88-23.22,5.84-34.68,6.17L69,208c6.67,4,12.36,5,20.52,5a142.75,142.75,0,0,0,47.94-8.3q23.48-8.3,38.25-22t14.77-28.36Q190.46,142.71,177.26,133.8Z" transform="translate(-47.11 -39.3)"/><path class="cls-1" d="M57.27,199.07l10.29-10.46a8.59,8.59,0,0,1-1.19-.7q-8.6-5.32-9.56-5.33-4.12,0-4.12,7.06C52.69,193,53.4,195.32,57.27,199.07Z" transform="translate(-47.11 -39.3)"/></g><path id="Eclair" class="cls-2" d="M139.51,122.32l68.72-70a.56.56,0,0,0-.71-.85L78.75,141.67a.56.56,0,0,0,.33,1l38.68.42a.57.57,0,0,1,.41,1l-70.4,71.7a.56.56,0,0,0,.72.85L177.9,124.68a.56.56,0,0,0-.34-1l-37.64-.41A.56.56,0,0,1,139.51,122.32Z" transform="translate(-47.11 -39.3)"/></svg>