<svg xmlns="http://www.w3.org/2000/svg" viewBox="0 0 125.56 125.56"><defs><style>.cls-1{fill:#56c2f0;}</style></defs><g id="Calque_3" data-name="Calque 3"><path class="cls-1" d="M164.17,181.8a2.45,2.45,0,0,0-3.35-.89l-.1.05a2.46,2.46,0,0,0,2.46,4.25l.1-.06A2.45,2.45,0,0,0,164.17,181.8Z" transform="translate(-69.1 -68)"/><path class="cls-1" d="M186.25,99.41a62.77,62.77,0,1,0-31.91,90,2.45,2.45,0,1,0-1.76-4.58,57.49,57.49,0,0,1-55.32-7.6l2.2-11.47,1.06-.34a7.66,7.66,0,0,0,4.9-9.62l-.78-2.39a2.71,2.71,0,0,1,0-1.69,7.62,7.62,0,0,0-5.79-9.86l-5.53-1.09-10.68-8.12a2.49,2.49,0,0,0-2.24-.38l-6.25,2a55.31,55.31,0,0,1,0-6.69c.24.23.4.38.5.49a3,3,0,0,0,.45.55,2.49,2.49,0,0,0,2,.68,36,36,0,0,0,4.39-.5c2.07-.31,4.13-.65,4.15-.66a2.45,2.45,0,0,0,1.62-3.8l-3-4.41,4.31-3.08a2.34,2.34,0,0,0,.7-.77l6.68-11.66,2.69-2.88a10.36,10.36,0,0,0,2-11,11.27,11.27,0,0,0-4.47-5.26A57.9,57.9,0,0,1,131.22,73l-4.38,5.5L110.6,84.14a2.41,2.41,0,0,0-1.45,1.38l-4.54,11a2.46,2.46,0,0,0,.27,2.36l6.63,9.28a23,23,0,0,0-3,3.69c-.48.69-.94,1.34-1.25,1.7l-.83.93a23.17,23.17,0,0,0-3.94,5.47,14.62,14.62,0,0,0,1.21,14.78,13.77,13.77,0,0,0,13,5.57,19.06,19.06,0,0,0,2.39-.48c2.11-.52,2.77-.57,3.45.06.32.31.36.37.35,1.41a9.24,9.24,0,0,0,.22,2.43,7.67,7.67,0,0,0,2.07,3.38,5.5,5.5,0,0,1,.89,1.14c.76,1.83.43,2.85-.3,5.07-.06.19-.12.38-.19.58-1.11,3.44.44,6.84,1.8,9.84.44,1,.86,1.9,1.14,2.71,2.2,6.55,3.85,8,5.18,8.65a5.21,5.21,0,0,0,2.14.45c3.54,0,7.23-3.28,8.92-5.36a7.61,7.61,0,0,0,1.52-3.57,3.89,3.89,0,0,1,.31-1.1,6.63,6.63,0,0,1,.81-1,8.59,8.59,0,0,0,2-3.33,5.43,5.43,0,0,1,1.67-2.62l.54-.58c3.26-3.55,2.42-6.27,1.53-9.14-.75-2.42.56-4,3.73-6.92a26.32,26.32,0,0,0,3.9-4.19c.48-.7,1.94-2.82,1-4.91s-3.15-2.41-5-2.68a8,8,0,0,1-2.14-.51c-1.52-1-2.44-3.06-3.34-5.06q-.27-.6-.54-1.17c-.31-.68-.63-1.51-1-2.38-.89-2.31-1.9-4.93-3.62-6.75-1.55-1.64-4.47-2.43-7-3.13-.87-.23-1.68-.45-2.22-.65a2.42,2.42,0,0,0-1.41-.09,6.43,6.43,0,0,0-2.62,1.08,3.12,3.12,0,0,0-.87,1.18,28.8,28.8,0,0,1-2.89-1.76l-.05,0a3.42,3.42,0,0,0-.22-2.36c-1.37-2.89-5.91-2.67-6.81-2.59-.51,0-1.16.06-1.84.09-1.07,0-2.25.08-3.42.21l.06-.17a6.26,6.26,0,0,1,5.88-4.14h1.4a2.45,2.45,0,1,0,0-4.9h-1.4a11.2,11.2,0,0,0-9.49,5.29l-3.66-5.12,3.6-8.73,15.87-5.56a2.48,2.48,0,0,0,1.11-.78l7-8.85A57.82,57.82,0,0,1,182,101.87a56.94,56.94,0,0,1,5.78,14l-1,.93a6.54,6.54,0,0,0-2.18,4.76v.06l-1.7-4.65a6,6,0,0,0-1.1-1.9l-3-3.54a6.15,6.15,0,0,0-4.68-2.15h-3.7a3.55,3.55,0,0,0-3,5.52l.38.56a27,27,0,0,1-8.1,4.81l-5.07-9.71v-2.17a2.42,2.42,0,0,0-.76-1.77l-4.56-4.36a2.49,2.49,0,0,0-.88-.54l-4.11-1.44a2.45,2.45,0,1,0-1.63,4.63l3.61,1.26,3.43,3.27v1.72a2.38,2.38,0,0,0,.28,1.14l6.34,12.15a2.45,2.45,0,0,0,3,1.17l1.84-.68a32,32,0,0,0,11.51-7.37,2.44,2.44,0,0,0,.31-3.09l-.13-.2h1.17a1.26,1.26,0,0,1,.95.44l3,3.54a1.11,1.11,0,0,1,.22.38l3.34,9.17a2.45,2.45,0,0,0,1.77,1.56,3.17,3.17,0,0,0,.53,0,2.48,2.48,0,0,0,1.74-.71l1.58-1.59a7.65,7.65,0,0,0,2-3.69,58.08,58.08,0,0,1-21.56,52.81,2.45,2.45,0,1,0,3,3.86,62.77,62.77,0,0,0,15.54-80.72ZM80.69,137.34,90.8,145a2.42,2.42,0,0,0,1,.46l6.09,1.19A2.72,2.72,0,0,1,100,150.2a7.6,7.6,0,0,0,0,4.74l.78,2.39A2.72,2.72,0,0,1,99,160.76l-2.44.79a2.47,2.47,0,0,0-1.65,1.87l-2,10.24a58.38,58.38,0,0,1-11.17-13.93,57.54,57.54,0,0,1-7.12-20.42ZM95,98.23l-2.88,3.09a2.61,2.61,0,0,0-.34.46l-6.55,11.43-5.82,4.17a2.45,2.45,0,0,0-.6,3.37L81,124c-1.26.18-2.38.34-3.13.42l-.45-.42c-.58-.54-1.39-1.27-2.6-2.32A58,58,0,0,1,92.06,88.82a6.37,6.37,0,0,1,4,3.64A5.42,5.42,0,0,1,95,98.23Zm20,13.4c1.09-.61,3.63-.7,5.49-.77.74,0,1.44,0,2.07-.1a6,6,0,0,1,1,0,2.59,2.59,0,0,0-.14,1.27,2.44,2.44,0,0,0,1.27,1.78c.46.25,1.1.68,1.78,1.13,1.91,1.28,4.09,2.72,6.13,2.85a4.08,4.08,0,0,0,3.33-1.38l.1-.11a2.51,2.51,0,0,0,.66-.8l1.23.34c1.45.39,4.15,1.12,4.75,1.75a17.28,17.28,0,0,1,2.61,5.16c.37,1,.72,1.85,1.11,2.69.17.35.34.72.5,1.1,1.13,2.52,2.42,5.38,5.14,7.16a10,10,0,0,0,4.08,1.24l.53.09a24,24,0,0,1-3.11,3.26c-3,2.83-6.81,6.35-5.07,12,.82,2.65.86,2.94-.46,4.38l-.51.54a10,10,0,0,0-2.76,4.48,3.93,3.93,0,0,1-1,1.56,10.44,10.44,0,0,0-1.37,1.82,7.94,7.94,0,0,0-.89,2.6,3.09,3.09,0,0,1-.51,1.44,14.31,14.31,0,0,1-3.1,2.74,4.1,4.1,0,0,1-2,.82c-.27-.28-1.21-1.51-2.65-5.76a34.2,34.2,0,0,0-1.31-3.17c-1.05-2.3-2.13-4.68-1.6-6.31l.18-.56c.84-2.56,1.63-5,.17-8.49a9,9,0,0,0-1.79-2.55,4.4,4.4,0,0,1-.94-1.24,5.87,5.87,0,0,1-.08-1.24,6.09,6.09,0,0,0-1.9-5c-2.71-2.54-5.88-1.76-8-1.24a14.69,14.69,0,0,1-1.79.37,8.78,8.78,0,0,1-8.44-3.57A9.69,9.69,0,0,1,107,122a18.35,18.35,0,0,1,3.17-4.31c.29-.32.57-.65.86-1,.48-.55,1-1.29,1.56-2.08A17.91,17.91,0,0,1,115,111.63Z" transform="translate(-69.1 -68)"/><path class="cls-1" d="M169.65,152.43,168.47,148a2.46,2.46,0,0,0-2.08-1.81,2.43,2.43,0,0,0-2.44,1.27c-.27.49-.51,1-.75,1.52A10.51,10.51,0,0,1,162,151.2a5.43,5.43,0,0,1-1.44.85c-1.41.68-3.35,1.62-4.09,4a7.23,7.23,0,0,0-.16,3.46,2.28,2.28,0,0,1-.06,1.45l0,0c-.78,1.84-2.23,5.25-.19,8.14,1.45,2.07,3,2.61,4.17,2.61a3.34,3.34,0,0,0,.65-.06c2.5-.41,4.38-3,5.92-8.19l2.88-9.72A2.4,2.4,0,0,0,169.65,152.43Zm-7.6,9.66a15.1,15.1,0,0,1-1.88,4.42l-.15-.2c-.47-.67.23-2.32.7-3.4l0-.06a6.85,6.85,0,0,0,.4-4.09,2.69,2.69,0,0,1,0-1.27c.1-.31.67-.6,1.54-1,.38-.19.81-.39,1.23-.64Z" transform="translate(-69.1 -68)"/><path class="cls-1" d="M135.32,97.15l-.17-.06a2.45,2.45,0,0,0-1.62,4.63l.17.06a2.51,2.51,0,0,0,.81.14,2.45,2.45,0,0,0,.81-4.77Z" transform="translate(-69.1 -68)"/></g></svg>