<svg id="add" xmlns="http://www.w3.org/2000/svg" viewBox="0 0 123.81 123.81"><defs><style>.cls-1{fill:#273066;}.cls-2{fill:#56c2f0;}</style></defs><g id="add-2" data-name="add"><path class="cls-1" d="M78.57,164.23a1.47,1.47,0,0,1-1.22-.64,61.94,61.94,0,0,1-.15-71,1.5,1.5,0,0,1,2.46,1.72,59,59,0,0,0,.14,67.54,1.5,1.5,0,0,1-.36,2.09A1.56,1.56,0,0,1,78.57,164.23Z" transform="translate(-66.1 -66.1)"/><path class="cls-1" d="M128,189.9a61.49,61.49,0,0,1-35.59-11.25,1.5,1.5,0,1,1,1.72-2.45,59,59,0,0,0,67.78,0,1.5,1.5,0,1,1,1.72,2.46A61.54,61.54,0,0,1,128,189.9Z" transform="translate(-66.1 -66.1)"/><path class="cls-1" d="M177.4,164.27a1.5,1.5,0,0,1-1.23-2.36,58.95,58.95,0,0,0,.14-67.62,1.5,1.5,0,0,1,2.46-1.72,62,62,0,0,1-.14,71.06A1.5,1.5,0,0,1,177.4,164.27Z" transform="translate(-66.1 -66.1)"/><path class="cls-1" d="M162.57,80a1.51,1.51,0,0,1-.86-.27,59,59,0,0,0-67.38,0,1.5,1.5,0,0,1-1.72-2.46,62,62,0,0,1,70.82,0,1.5,1.5,0,0,1-.86,2.73Z" transform="translate(-66.1 -66.1)"/><path class="cls-2" d="M128,129.6a1.5,1.5,0,0,1-1.5-1.5V101.94a1.5,1.5,0,0,1,3,0V128.1A1.5,1.5,0,0,1,128,129.6Z" transform="translate(-66.1 -66.1)"/><path class="cls-2" d="M128,129.6H101.84a1.5,1.5,0,0,1,0-3H128a1.5,1.5,0,0,1,0,3Z" transform="translate(-66.1 -66.1)"/><path class="cls-2" d="M154.16,129.6H128a1.5,1.5,0,0,1,0-3h26.16a1.5,1.5,0,0,1,0,3Z" transform="translate(-66.1 -66.1)"/><path class="cls-2" d="M128,155.76a1.5,1.5,0,0,1-1.5-1.5V128.1a1.5,1.5,0,0,1,3,0v26.16A1.5,1.5,0,0,1,128,155.76Z" transform="translate(-66.1 -66.1)"/></g></svg>