<svg id="avis_critique" xmlns="http://www.w3.org/2000/svg" viewBox="0 0 145.26 102.88"><defs><style>.cls-1{fill:#56c2f0;}</style></defs><g id="avis_critique-2" data-name="avis_critique"><path class="cls-1" d="M189.72,73.27H96.42c-3.7,0-3.71,5.77,0,5.77h93.3a2.88,2.88,0,0,1,2.88,2.88V150a2.88,2.88,0,0,1-2.88,2.88H139.27A2.87,2.87,0,0,0,137,154l-11.63,14.73-12.32-14.79a2.91,2.91,0,0,0-2.22-1H61.75A2.88,2.88,0,0,1,58.87,150V81.92A2.88,2.88,0,0,1,61.75,79h11c3.7,0,3.71-5.77,0-5.77h-11a8.65,8.65,0,0,0-8.64,8.65V150a8.65,8.65,0,0,0,8.64,8.64H109.5l13.73,16.48a2.91,2.91,0,0,0,4.48-.06l13-16.42h49.06a8.66,8.66,0,0,0,8.64-8.64V81.92a8.66,8.66,0,0,0-8.64-8.65Z" transform="translate(-53.11 -73.27)"/><path class="cls-1" d="M83,79a2.88,2.88,0,1,0-1.09-3.42A2.9,2.9,0,0,0,83,79Z" transform="translate(-53.11 -73.27)"/><path class="cls-1" d="M125.73,107.51c-12,0-22.07,9.94-25.84,14.21a4.51,4.51,0,0,0,0,6c3.77,4.28,13.85,14.22,25.84,14.22s22.08-9.94,25.85-14.22a4.51,4.51,0,0,0,0-6C147.81,117.45,137.73,107.51,125.73,107.51Zm23.36,18c-2.88,3.25-9.69,10.07-18,12.34a10.08,10.08,0,0,0,4.71-8.52,1.67,1.67,0,0,0-3.34,0,6.74,6.74,0,1,1-2.83-5.5,1.67,1.67,0,0,0,1.93-2.72,10.08,10.08,0,1,0-11.22,16.74c-8.29-2.27-15.1-9.09-18-12.34a1.2,1.2,0,0,1,0-1.57c3.48-3.94,12.71-13.09,23.35-13.09s19.88,9.15,23.35,13.09a1.19,1.19,0,0,1,0,1.57Z" transform="translate(-53.11 -73.27)"/><path class="cls-1" d="M108.67,105.5H109a16.13,16.13,0,0,0,11.44-4.87,13.53,13.53,0,0,1,20.81,1.82,1.85,1.85,0,0,0,3.06-2.09A17.24,17.24,0,0,0,117.77,98a12.36,12.36,0,0,1-9,3.76,1.86,1.86,0,1,0-.07,3.71Z" transform="translate(-53.11 -73.27)"/></g></svg>