<svg xmlns="http://www.w3.org/2000/svg" viewBox="0 0 98.62 112.06"><defs><style>.cls-1{fill:#57c2f0;}.cls-1,.cls-2{fill-rule:evenodd;}.cls-2{fill:#56c2f0;}</style></defs><g id="Calque_2" data-name="Calque 2"><path class="cls-1" d="M175.12,117.2H100.45l71.72-20.77a2.2,2.2,0,0,0,1.5-2.71l-3.76-13A12.24,12.24,0,0,0,158.2,72a12.11,12.11,0,0,0-3.38.48L87.48,92A12.21,12.21,0,0,0,79.17,107l3.67,12.66v52.15A12.19,12.19,0,0,0,95,184h26.3a2.19,2.19,0,1,0,0-4.38H95a7.81,7.81,0,0,1-7.8-7.8V142.07h85.71v29.78a7.81,7.81,0,0,1-7.8,7.8h-26.3a2.19,2.19,0,0,0,0,4.38h26.3a12.19,12.19,0,0,0,12.18-12.18V119.39A2.19,2.19,0,0,0,175.12,117.2Zm-38.59,20.49,9.3-16.11h12.09l-9.3,16.11Zm-17.15,0,9.3-16.11h12.09l-9.3,16.11Zm-17.15,0,9.3-16.11h12.09l-9.3,16.11Zm8.14-28.34L94.79,94.4,106.46,91a1.81,1.81,0,0,0,.29.33l15.57,15-11.67,3.38A3,3,0,0,0,110.37,109.35Zm29.32-27.54,15.58,15-11.67,3.38a1.87,1.87,0,0,0-.29-.34l-15.57-15,11.67-3.38A1.81,1.81,0,0,0,139.69,81.81Zm-16.47,4.77,15.57,15-11.67,3.38a2.2,2.2,0,0,0-.28-.34l-15.57-15,11.66-3.37A3,3,0,0,0,123.22,86.58ZM156,76.65a7.93,7.93,0,0,1,2.16-.3A7.85,7.85,0,0,1,165.71,82l3.14,10.85-8.78,2.54a1.81,1.81,0,0,0-.29-.33l-15.57-15Zm-72,23.25a7.77,7.77,0,0,1,4.65-3.74L90,95.79a3,3,0,0,0,.28.34l15.58,15-19.33,5.6-3.14-10.85A7.73,7.73,0,0,1,84.05,99.9Zm3.17,21.68h19.25l-9.3,16.11h-10Zm66.46,16.11,9.3-16.11h10v16.11Z" transform="translate(-78.69 -71.97)"/><path class="cls-1" d="M145.21,160.64a2.18,2.18,0,0,0-1.1-1.9l-19.22-11.1a2.2,2.2,0,0,0-3.29,1.89v22.21a2.18,2.18,0,0,0,1.1,1.89,2.13,2.13,0,0,0,1.09.3,2.17,2.17,0,0,0,1.1-.3l19.22-11.1A2.18,2.18,0,0,0,145.21,160.64ZM126,168V153.33l12.66,7.31Z" transform="translate(-78.69 -71.97)"/><path class="cls-1" d="M130.07,179.65a2.19,2.19,0,1,0,2.19,2.19A2.19,2.19,0,0,0,130.07,179.65Z" transform="translate(-78.69 -71.97)"/></g><g id="casting"><path class="cls-1" d="M175.12,117.2H100.45l71.72-20.77a2.2,2.2,0,0,0,1.5-2.71l-3.76-13A12.24,12.24,0,0,0,158.2,72a12.11,12.11,0,0,0-3.38.48L87.48,92A12.21,12.21,0,0,0,79.17,107l3.67,12.66v52.15A12.19,12.19,0,0,0,95,184h26.3a2.19,2.19,0,1,0,0-4.38H95a7.81,7.81,0,0,1-7.8-7.8V142.07h85.71v29.78a7.81,7.81,0,0,1-7.8,7.8h-26.3a2.19,2.19,0,0,0,0,4.38h26.3a12.19,12.19,0,0,0,12.18-12.18V119.39A2.19,2.19,0,0,0,175.12,117.2Zm-38.59,20.49,9.3-16.11h12.09l-9.3,16.11Zm-17.15,0,9.3-16.11h12.09l-9.3,16.11Zm-17.15,0,9.3-16.11h12.09l-9.3,16.11Zm8.14-28.34L94.79,94.4,106.46,91a1.81,1.81,0,0,0,.29.33l15.57,15-11.67,3.38A3,3,0,0,0,110.37,109.35Zm29.32-27.54,15.58,15-11.67,3.38a1.87,1.87,0,0,0-.29-.34l-15.57-15,11.67-3.38A1.81,1.81,0,0,0,139.69,81.81Zm-16.47,4.77,15.57,15-11.67,3.38a2.2,2.2,0,0,0-.28-.34l-15.57-15,11.66-3.37A3,3,0,0,0,123.22,86.58ZM156,76.65a7.93,7.93,0,0,1,2.16-.3A7.85,7.85,0,0,1,165.71,82l3.14,10.85-8.78,2.54a1.81,1.81,0,0,0-.29-.33l-15.57-15Zm-72,23.25a7.77,7.77,0,0,1,4.65-3.74L90,95.79a3,3,0,0,0,.28.34l15.58,15-19.33,5.6-3.14-10.85A7.73,7.73,0,0,1,84.05,99.9Zm3.17,21.68h19.25l-9.3,16.11h-10Zm66.46,16.11,9.3-16.11h10v16.11Z" transform="translate(-78.69 -71.97)"/><path class="cls-1" d="M145.21,160.64a2.18,2.18,0,0,0-1.1-1.9l-19.22-11.1a2.2,2.2,0,0,0-3.29,1.89v22.21a2.18,2.18,0,0,0,1.1,1.89,2.13,2.13,0,0,0,1.09.3,2.17,2.17,0,0,0,1.1-.3l19.22-11.1A2.18,2.18,0,0,0,145.21,160.64ZM126,168V153.33l12.66,7.31Z" transform="translate(-78.69 -71.97)"/><path class="cls-2" d="M130.07,179.65a2.19,2.19,0,1,0,2.19,2.19A2.19,2.19,0,0,0,130.07,179.65Z" transform="translate(-78.69 -71.97)"/></g></svg>