<svg id="comment" xmlns="http://www.w3.org/2000/svg" viewBox="0 0 154.74 151.09"><defs><style>.cls-1{fill:#273066;}.cls-2{fill:#56c2f0;}</style></defs><g id="comment-2" data-name="comment"><path class="cls-1" d="M35.72,158a1.5,1.5,0,0,1-1.5-1.5V98.15a1.5,1.5,0,0,1,3,0v58.34A1.5,1.5,0,0,1,35.72,158Z" transform="translate(-34.22 -66.65)"/><path class="cls-1" d="M60.72,188a26.53,26.53,0,0,1-26.5-26.5,1.5,1.5,0,0,1,3,0A23.53,23.53,0,0,0,60.72,185a1.5,1.5,0,0,1,0,3Z" transform="translate(-34.22 -66.65)"/><path class="cls-1" d="M90.28,188H65.72a1.5,1.5,0,0,1,0-3H90.28a1.5,1.5,0,0,1,0,3Z" transform="translate(-34.22 -66.65)"/><path class="cls-1" d="M124.41,217.74a4.13,4.13,0,0,1-1.9-.44c-4.42-2.22-2.62-11.6-.13-24.58.3-1.55.6-3.13.9-4.73H100.87a1.5,1.5,0,0,1,0-3h24.21a1.5,1.5,0,0,1,1.48,1.77c-.4,2.21-.82,4.4-1.23,6.52-1.72,9-3.87,20.14-1.47,21.34,2.15,1.08,9.73-3.09,33.57-29.14a1.48,1.48,0,0,1,1.1-.49c12.69,0,27.44-10.27,27.44-23.5a1.5,1.5,0,0,1,3,0c0,14.69-15.85,26.13-29.77,26.49C137.75,211.38,129,217.74,124.41,217.74Z" transform="translate(-34.22 -66.65)"/><path class="cls-1" d="M187.47,158a1.5,1.5,0,0,1-1.5-1.5V98.15a1.5,1.5,0,0,1,3,0v58.34A1.5,1.5,0,0,1,187.47,158Z" transform="translate(-34.22 -66.65)"/><path class="cls-1" d="M187.47,94.65a1.5,1.5,0,0,1-1.5-1.5,23.52,23.52,0,0,0-23.5-23.5,1.5,1.5,0,0,1,0-3A26.53,26.53,0,0,1,189,93.15,1.5,1.5,0,0,1,187.47,94.65Z" transform="translate(-34.22 -66.65)"/><path class="cls-1" d="M157.47,69.65H65.72a1.5,1.5,0,0,1,0-3h91.75a1.5,1.5,0,0,1,0,3Z" transform="translate(-34.22 -66.65)"/><path class="cls-1" d="M35.72,94.65a1.5,1.5,0,0,1-1.5-1.5,26.53,26.53,0,0,1,26.5-26.5,1.5,1.5,0,0,1,0,3,23.53,23.53,0,0,0-23.5,23.5A1.5,1.5,0,0,1,35.72,94.65Z" transform="translate(-34.22 -66.65)"/><path class="cls-2" d="M111.6,117.44c-12,0-22.08,9.94-25.85,14.21a4.51,4.51,0,0,0,0,6c3.77,4.28,13.85,14.22,25.85,14.22s22.07-9.94,25.84-14.22a4.51,4.51,0,0,0,0-6C133.67,127.38,123.59,117.44,111.6,117.44Zm23.35,18c-2.88,3.26-9.69,10.08-18,12.35a10.08,10.08,0,0,0,4.71-8.53,1.67,1.67,0,0,0-3.34,0,6.72,6.72,0,1,1-2.83-5.5,1.66,1.66,0,1,0,1.93-2.71,10.08,10.08,0,1,0-11.22,16.74c-8.29-2.27-15.1-9.09-18-12.35a1.19,1.19,0,0,1,0-1.56c3.48-3.94,12.72-13.09,23.36-13.09s19.87,9.15,23.35,13.09a1.19,1.19,0,0,1,0,1.56Z" transform="translate(-34.22 -66.65)"/><path class="cls-2" d="M94.53,115.42h.31a16.1,16.1,0,0,0,11.44-4.88,13.55,13.55,0,0,1,20.82,1.83,1.85,1.85,0,1,0,3.05-2.1,17.15,17.15,0,0,0-16.35-7.35,17,17,0,0,0-10.17,5,12.35,12.35,0,0,1-9,3.76,1.85,1.85,0,1,0-.07,3.7Z" transform="translate(-34.22 -66.65)"/></g></svg>