<svg id="Director" xmlns="http://www.w3.org/2000/svg" viewBox="0 0 125.77 150.76"><defs><style>.cls-1{fill:#56c2f0;}</style></defs><g id="Director-2" data-name="Director"><path class="cls-1" d="M167.54,172.58c2.1,0,4.19-.08,6.28,0a3.86,3.86,0,0,1,4.06,3.91,3.93,3.93,0,0,1-3.87,4.41c-4.27.16-8.56.13-12.84,0a4.17,4.17,0,1,1,.1-8.33C163.36,172.51,165.45,172.58,167.54,172.58Z" transform="translate(-71.16 -55.32)"/><path class="cls-1" d="M119.3,132.76c-12.58,3.9-22,10.44-29.09,20.15a53.33,53.33,0,0,0-10.63,32.37c0,5.18,0,10.37,0,15.55,0,3.42-1.66,5.34-4.35,5.25s-4.16-1.93-4-5.22c.4-9.74-.32-19.73,1.65-29.15,4.52-21.71,18-36.63,38.45-45.18l2.8-1.17c-23.16-15.89-21.45-44.06-7.3-58.61A38.12,38.12,0,0,1,161,66.53c14.37,14.47,16.24,42.92-7,58.8,2.62,1.16,5.22,2.15,7.65,3.43q33.63,17.67,35.2,55.66c.23,5.47.05,11,0,16.45,0,3.29-1.48,5.12-4.07,5.21s-4.26-1.84-4.34-5.26c-.2-7.86.44-15.86-.77-23.57-3.42-21.65-16-36.18-36.52-43.77a8.34,8.34,0,0,0-1.36-.26c-3.28,6.53-2.65,13.11-1.3,19.84,2.26,11.33,4.22,22.72,6.34,34.07.51,2.71-.09,4.76-2.49,6.46-4.95,3.52-9.8,7.19-14.59,10.94-2.51,2-4.72,2-7.26.06-4.87-3.8-9.83-7.5-14.83-11.13a5.57,5.57,0,0,1-2.37-6.19c2.55-13.51,5.25-27,7.25-40.58C121.16,142.37,119.8,137.77,119.3,132.76Zm14.63-10.49A29.27,29.27,0,1,0,104.69,93,29.41,29.41,0,0,0,133.93,122.27ZM146,187c-.06-.67-.06-.77-.08-.87-2.23-12.35-4.18-24.76-6.89-37-.75-3.39-4.84-1.11-7.36-1.47-.86-.13-1.91,1-2.86,1.65-.06,0,0,.19,0,.28-2.18,12-4.39,23.91-6.45,35.89a4.09,4.09,0,0,0,1.24,3.21,111.9,111.9,0,0,0,9.08,6.81,3,3,0,0,0,2.75.06c3.2-2.19,6.28-4.57,9.35-7A6.92,6.92,0,0,0,146,187Zm-19.29-55.82c2.09,2.88-.07,7.36,4.26,7.8,8.32.85,8.58.42,10-7.8Z" transform="translate(-71.16 -55.32)"/></g></svg>