<svg id="Calque_3" data-name="Calque 3" xmlns="http://www.w3.org/2000/svg" viewBox="0 0 209.72 200.1"><defs><style>.cls-1{fill:#56c2f0;}</style></defs><g id="Home"><path class="cls-1" d="M197.27,227.36H154.79a10,10,0,0,1-10-10V168.72H111.21v48.64a10,10,0,0,1-10,10H58.73a10,10,0,0,1-10-10l0-83-15.57,0h0a10,10,0,0,1-6.62-17.5L128,27.26l30.89,27.3V41.19h53v60.22l17.55,15.5a10,10,0,0,1-6.62,17.5h0l-15.57,0,0,83a10,10,0,0,1-10,10Zm-148.51-103a10,10,0,0,1,10,10l0,83h42.48V168.72a10,10,0,0,1,10-10h33.58a10,10,0,0,1,10,10v48.64h42.48l0-83a10,10,0,0,1,10-10l15.58,0-20.93-18.5V51.19h-33V76.74L128,40.61l-94.85,83.8,15.58,0Z" transform="translate(-23.14 -27.26)"/></g></svg>