<svg xmlns="http://www.w3.org/2000/svg" viewBox="0 0 125.56 125.56"><defs><style>.cls-1{fill:#273066;}</style></defs><g id="Info"><g id="Info-2" data-name="Info"><path class="cls-1" d="M166.26,98.57a2.45,2.45,0,1,0,2.45-2.45A2.45,2.45,0,0,0,166.26,98.57Z" transform="translate(-65.22 -65.22)"/><path class="cls-1" d="M176.07,128a46.77,46.77,0,0,1-.94,9.32,2.45,2.45,0,0,0,1.91,2.89,2.12,2.12,0,0,0,.5,0,2.46,2.46,0,0,0,2.4-2,52.15,52.15,0,0,0,1-10.3,50.9,50.9,0,0,0-5-22.09,2.45,2.45,0,1,0-4.42,2.11A46.19,46.19,0,0,1,176.07,128Z" transform="translate(-65.22 -65.22)"/><path class="cls-1" d="M140.26,150.07h-2.45V118.19a2.45,2.45,0,0,0-2.45-2.45H115.74a2.45,2.45,0,0,0-2.45,2.45V128a2.45,2.45,0,0,0,2.45,2.45h2.45v19.62h-2.45a2.45,2.45,0,0,0-2.45,2.45v9.81a2.45,2.45,0,0,0,2.45,2.46h24.52a2.45,2.45,0,0,0,2.45-2.46v-9.81A2.45,2.45,0,0,0,140.26,150.07Zm-2.45,9.81H118.19V155h2.45a2.46,2.46,0,0,0,2.46-2.46V128a2.46,2.46,0,0,0-2.46-2.45h-2.45v-4.91H132.9v31.88a2.46,2.46,0,0,0,2.46,2.46h2.45Z" transform="translate(-65.22 -65.22)"/><path class="cls-1" d="M128,110.83a9.81,9.81,0,1,0-9.81-9.81A9.82,9.82,0,0,0,128,110.83Zm0-14.71a4.91,4.91,0,1,1-4.9,4.9A4.91,4.91,0,0,1,128,96.12Z" transform="translate(-65.22 -65.22)"/><path class="cls-1" d="M128,65.22c-33.84,0-62.78,28.89-62.78,62.78a66.89,66.89,0,0,0,8.91,33.2l-8.79,26.35a2.47,2.47,0,0,0,3.11,3.11l26.35-8.79a66.79,66.79,0,0,0,33.2,8.91c33.85,0,62.78-28.89,62.78-62.78S161.89,65.22,128,65.22Zm0,120.66c-11.11,0-22.91-3.28-31.58-8.77a2.44,2.44,0,0,0-2.09-.25l-22.78,7.59,7.59-22.78a2.44,2.44,0,0,0-.25-2.09c-5.49-8.67-8.77-20.47-8.77-31.58,0-31.37,26.51-57.88,57.88-57.88S185.88,96.63,185.88,128,159.37,185.88,128,185.88Z" transform="translate(-65.22 -65.22)"/></g></g></svg>