<svg id="Like_broken" xmlns="http://www.w3.org/2000/svg" viewBox="0 0 74.87 64.69"><defs><style>.cls-1{fill:#273066;}</style></defs><g id="Like_broken_empty"><path class="cls-1" d="M122.21,160.5a2.47,2.47,0,0,1-1.6-.59C106.46,148.08,91,130.09,90.08,120.05c-.61-8.55,2.89-16,9.6-20.51a22.65,22.65,0,0,1,22.68-1.27,2.49,2.49,0,0,1,1.28,1.62,2.52,2.52,0,0,1-.4,2.08l-7.33,10.13a1.49,1.49,0,0,0,.3,2.07l10.2,7.82a2.5,2.5,0,0,1,.17,3.83l-6.18,5.64a1.51,1.51,0,0,0-.48,1.11,1.47,1.47,0,0,0,.49,1.11l7.07,6.42a2.52,2.52,0,0,1,.76,2.39l-3.58,16a2.46,2.46,0,0,1-1.64,1.82A2.51,2.51,0,0,1,122.21,160.5ZM112,96.83a21.29,21.29,0,0,0-11.81,3.54c-6.4,4.28-9.74,11.42-9.16,19.61.86,9.75,16.19,27.46,30.18,39.17a1.51,1.51,0,0,0,2.44-.83l3.57-16a1.49,1.49,0,0,0-.46-1.44l-7.06-6.42a2.49,2.49,0,0,1-.82-1.84,2.45,2.45,0,0,1,.81-1.85l6.17-5.65a1.5,1.5,0,0,0-.1-2.3L115.6,115a2.49,2.49,0,0,1-.5-3.45l7.33-10.13h0a1.5,1.5,0,0,0,.24-1.25,1.45,1.45,0,0,0-.76-1A22,22,0,0,0,112,96.83Z" transform="translate(-90.01 -95.81)"/><path class="cls-1" d="M134.62,158.84a2.5,2.5,0,0,1-2.45-3h0l3-13.53a1.53,1.53,0,0,0-.46-1.43l-7.07-6.42a2.5,2.5,0,0,1,0-3.69l6.17-5.65a1.5,1.5,0,0,0-.1-2.3l-10.29-7.89a2.49,2.49,0,0,1-.6-3.32l5.07-8a15.87,15.87,0,0,1,9.63-7.06,22.37,22.37,0,0,1,19.7,4.55c5.48,4.62,8.19,11.38,7.65,19-.83,9.5-15,26.4-28.56,38.17A2.46,2.46,0,0,1,134.62,158.84ZM133.15,156a1.5,1.5,0,0,0,2.45,1.46C149,145.82,163,129.2,163.81,120c.52-7.32-2.07-13.79-7.29-18.2a21.42,21.42,0,0,0-18.83-4.34,14.89,14.89,0,0,0-9,6.63l-5.07,8a1.5,1.5,0,0,0,.35,2l10.3,7.9a2.47,2.47,0,0,1,1,1.87,2.53,2.53,0,0,1-.81,2l-6.18,5.64a1.51,1.51,0,0,0-.48,1.11,1.47,1.47,0,0,0,.49,1.11l7.07,6.42a2.52,2.52,0,0,1,.76,2.39Z" transform="translate(-90.01 -95.81)"/></g></svg>