<svg xmlns="http://www.w3.org/2000/svg" viewBox="0 0 189.6 172.11"><defs><style>.cls-1{fill:#010101;}.cls-2{fill:#273066;}</style></defs><g id="Calque_2" data-name="Calque 2"><path id="Modele" class="cls-1" d="M222.56,93.68a50.76,50.76,0,0,0-94.79-25.24A50.76,50.76,0,1,0,48,129.74l77.92,84.49.08.07.06.07.13.1.2.15a1.67,1.67,0,0,0,.23.12l.2.11.27.08.19,0a1.64,1.64,0,0,0,.38,0h.1a2.61,2.61,0,0,0,.48-.05l.11,0a2,2,0,0,0,.35-.11l.15-.07.29-.16.15-.12a1.67,1.67,0,0,0,.16-.12l.07-.08.07-.06,79.8-86.37h0A49.47,49.47,0,0,0,222.56,93.68ZM83.72,47.93a45.86,45.86,0,0,1,41.77,27,2.5,2.5,0,0,0,4.56,0,45.76,45.76,0,0,1,87.51,18.72,44.58,44.58,0,0,1-11.83,30.79h0l-78,84.38L51.64,126.31l0,0,0,0A45.75,45.75,0,0,1,83.72,47.93Z" transform="translate(-32.97 -42.93)"/><path id="Vide" class="cls-1" d="M222.56,93.68a50.76,50.76,0,0,0-94.79-25.24A50.76,50.76,0,1,0,48,129.74l77.92,84.49.08.07.06.07.13.1.2.15a1.67,1.67,0,0,0,.23.12l.2.11.27.08.19,0a1.64,1.64,0,0,0,.38,0h.1a2.61,2.61,0,0,0,.48-.05l.11,0a2,2,0,0,0,.35-.11l.15-.07.29-.16.15-.12a1.67,1.67,0,0,0,.16-.12l.07-.08.07-.06,79.8-86.37h0A49.47,49.47,0,0,0,222.56,93.68ZM83.72,47.93a45.86,45.86,0,0,1,41.77,27,2.5,2.5,0,0,0,4.56,0,45.76,45.76,0,0,1,87.51,18.72,44.58,44.58,0,0,1-11.83,30.79h0l-78,84.38L51.64,126.31l0,0,0,0A45.75,45.75,0,0,1,83.72,47.93Z" transform="translate(-32.97 -42.93)"/><path id="Like_empty" class="cls-2" d="M171.81,42.93a50.84,50.84,0,0,0-44,25.51A50.76,50.76,0,1,0,48,129.74l77.92,84.49.08.07.06.07.13.1.2.15a1.67,1.67,0,0,0,.23.12l.2.11.27.08.19,0a1.64,1.64,0,0,0,.38,0h.1a2.61,2.61,0,0,0,.48-.05l.11,0a2,2,0,0,0,.35-.11l.15-.07.29-.16.15-.12a1.67,1.67,0,0,0,.16-.12l.07-.08.07-.06,79.8-86.37h0a49.47,49.47,0,0,0,13.16-34.18A50.81,50.81,0,0,0,171.81,42.93Zm35,83.76h0l-77.22,83.54-.07,0a.27.27,0,0,1-.07.08l-.15.12-.15.12-.28.15-.14.07a2.19,2.19,0,0,1-.34.1l-.11,0a2.59,2.59,0,0,1-.47,0h-.1a2.19,2.19,0,0,1-.36,0l-.19-.06a1.12,1.12,0,0,1-.26-.08.93.93,0,0,1-.2-.1,1.19,1.19,0,0,1-.22-.12,1.33,1.33,0,0,1-.19-.14l-.13-.1-.06-.07-.08-.06L50.07,128.5a48.29,48.29,0,0,1-14.6-34.72A47.72,47.72,0,0,1,83.72,45.55c17.75,0,35.33,11.29,44.05,26.35,8.72-15.06,25.4-26.35,43.14-26.35,27.18,0,49.15,20.93,49.15,47.88A48.76,48.76,0,0,1,206.77,126.69Z" transform="translate(-32.97 -42.93)"/></g><g id="Like"><path id="Like_full" class="cls-2" d="M171.81,42.93a50.84,50.84,0,0,0-44,25.51A50.76,50.76,0,1,0,48,129.74l77.92,84.49.08.07.06.07.13.1.2.15a1.67,1.67,0,0,0,.23.12l.2.11.27.08.19,0a1.64,1.64,0,0,0,.38,0h.1a2.61,2.61,0,0,0,.48-.05l.11,0a2,2,0,0,0,.35-.11l.15-.07.29-.16.15-.12a1.67,1.67,0,0,0,.16-.12l.07-.08.07-.06,79.8-86.37h0a49.47,49.47,0,0,0,13.16-34.18A50.81,50.81,0,0,0,171.81,42.93Z" transform="translate(-32.97 -42.93)"/></g></svg>