<svg id="Like_broken" xmlns="http://www.w3.org/2000/svg" viewBox="0 0 73.87 63.69"><defs><style>.cls-1{fill:#273066;}</style></defs><g id="Like_broken_full"><path class="cls-1" d="M122.83,101.68a2,2,0,0,0-.7-3c-14.8-7.42-32.86,3-31.56,21.29.85,9.66,15.84,27.37,30.36,39.52a2,2,0,0,0,3.24-1.1l3.58-16.05a2,2,0,0,0-.61-1.91l-7.07-6.42a2,2,0,0,1,0-3l6.17-5.64a2,2,0,0,0-.13-3.06l-10.2-7.83a2,2,0,0,1-.41-2.76Z" transform="translate(-90.51 -96.31)"/><path class="cls-1" d="M132.66,155.91a2,2,0,0,0,3.27,1.94c13.88-12.06,27.57-28.62,28.38-37.84,1.16-16.34-13.12-26.4-26.74-23.07a15.46,15.46,0,0,0-9.31,6.85l-5.07,8a2,2,0,0,0,.47,2.66l10.3,7.9a2,2,0,0,1,.13,3.06l-6.17,5.64a2,2,0,0,0,0,3l7.08,6.42a2,2,0,0,1,.6,1.91Z" transform="translate(-90.51 -96.31)"/></g></svg>