<svg id="link" xmlns="http://www.w3.org/2000/svg" viewBox="0 0 168.9 168.9"><defs><style>.cls-1{fill:#56c2f0;}</style></defs><g id="link-2" data-name="link"><path class="cls-1" d="M197.61,144.86l-32.35-32.35A36.85,36.85,0,0,0,152,104a37,37,0,0,0-8.54-13.23L111.14,58.39A37.3,37.3,0,0,0,58.26,111l.13.13,32.35,32.35A36.94,36.94,0,0,0,104,152a36.81,36.81,0,0,0,8.54,13.23l32.35,32.35a37.3,37.3,0,0,0,52.75-52.75Zm-103.28-5L62,107.55a32.22,32.22,0,0,1,44.34-46.76c.42.4.82.8,1.21,1.21L139.9,94.33a32.2,32.2,0,0,1,5.79,7.87l-.51-.08-.35-.06c-.45-.08-.9-.14-1.35-.2h-.13l-1.25-.13h-.34l-1.22-.07H137A25.83,25.83,0,0,0,134.65,99L102.92,67.22a25.24,25.24,0,0,0-35.69,0c-.08.08-.16.15-.23.23a25.51,25.51,0,0,0,.48,35.7L99,134.65a27.52,27.52,0,0,0,2.64,2.3V137l1.26.83.76.49a25.64,25.64,0,0,0,5.67,2.57h0l.71.2h.16l.66.16.21.06.61.13H112l.52.1.37.06.42.06.48.06h.33l.57.06h4.42v-.08A25.25,25.25,0,0,0,141.91,119h.15l.62.1h.24l.84.17h0l.79.2.24.07.61.19.23.07.74.27h.06l.79.33.21.1a6.11,6.11,0,0,1,.58.27l.23.11.63.33.1.06a32.19,32.19,0,0,1-29,27.61c-1,.09-2,.13-2.92.13-.62,0-1.24,0-1.85-.06a32.09,32.09,0,0,1-20.94-9.37ZM131,102.44A37.27,37.27,0,0,0,102.44,131L71.06,99.56A20.39,20.39,0,0,1,70.63,71a20.17,20.17,0,0,1,28.51-.37l.18.18Zm-11.77,34.37a20.14,20.14,0,0,1,17.64-17.63A20.12,20.12,0,0,1,119.23,136.81Zm34.38-11.76L185,156.44a20.4,20.4,0,0,1,.43,28.55,20.17,20.17,0,0,1-28.52.37l-.18-.18L125.1,153.56a37.29,37.29,0,0,0,28.51-28.51ZM194,194a32.22,32.22,0,0,1-45.57,0h0L116.1,161.67a31.81,31.81,0,0,1-5.79-7.88,3,3,0,0,1,.51.09l.36.06c.44.07.88.14,1.33.19h.2l1.16.11h.41l1.09.06H119a26.73,26.73,0,0,0,2.32,2.67l31.74,31.73a25.23,25.23,0,0,0,35.68,0l.25-.25a25.51,25.51,0,0,0-.48-35.7L157,121.35a24.13,24.13,0,0,0-2.65-2.3v0l-1.26-.84-.76-.48-.28-.17-.5-.29-.41-.22-.38-.21-.49-.24-.32-.16-.52-.24-.29-.13-.55-.22-.28-.12-.55-.2-.29-.11-.55-.18-.31-.1-.54-.16-.32-.09-.52-.13-.35-.09-.49-.1-.39-.08-.46-.09-.43-.07-.42-.06-.47-.07h-.38l-.53-.06h-2.17A25.23,25.23,0,0,0,114,136.9h-.15l-.62-.1H113l-.84-.18h0l-.77-.2-.25-.07-.59-.18-.25-.08-.72-.26h-.08l-.78-.32-.22-.1-.57-.27-.24-.12-.61-.32-.11-.06A32.19,32.19,0,0,1,136,107c1-.09,2-.14,2.92-.14a20.41,20.41,0,0,1,2.64.11q.71.06,1.41.15a32.49,32.49,0,0,1,6.3,1.44,31.91,31.91,0,0,1,12.44,7.74L194,148.45A32.28,32.28,0,0,1,194,194Z" transform="translate(-43.55 -43.55)"/><rect class="cls-1" x="164.94" y="74.97" width="27.09" height="5.08" transform="translate(-46.08 105.36) rotate(-45)"/><rect class="cls-1" x="94.38" width="5.08" height="27.09"/><rect class="cls-1" x="141.81" y="69.43" width="27.09" height="5.08"/><rect class="cls-1" x="63.95" y="175.94" width="27.09" height="5.08" transform="translate(-147.06 63.53) rotate(-45)"/><rect class="cls-1" y="94.38" width="27.09" height="5.08"/><rect class="cls-1" x="69.43" y="141.81" width="5.08" height="27.09"/></g></svg>