<svg id="Calque_3" data-name="Calque 3" xmlns="http://www.w3.org/2000/svg" viewBox="0 0 180.49 162.23"><defs><style>.cls-1{fill:#273066;}</style></defs><path class="cls-1" d="M128,209.12a81.2,81.2,0,0,1-74.28-48.47,2.5,2.5,0,0,1,4.58-2,76.12,76.12,0,1,0,3.06-67.46A2.5,2.5,0,1,1,57,88.76a81.12,81.12,0,1,1,71,120.36Z" transform="translate(-28.63 -46.88)"/><path class="cls-1" d="M99.09,129.36a2.39,2.39,0,0,0,.12-.22.93.93,0,0,0,.1-.2c0-.09.06-.18.09-.27s0-.12,0-.19a1.9,1.9,0,0,0,0-.41s0,0,0-.07h0a2.63,2.63,0,0,0,0-.49,1.21,1.21,0,0,0,0-.18c0-.09-.05-.18-.09-.27a1.24,1.24,0,0,0-.1-.2,1.67,1.67,0,0,0-.12-.23l-.16-.2a.88.88,0,0,0-.12-.15L77.7,104.13a2.5,2.5,0,1,0-3.62,3.45L91.16,125.5h-60a2.5,2.5,0,1,0,0,5H91.22L74.07,148.73a2.5,2.5,0,1,0,3.64,3.43l21.11-22.45a1.58,1.58,0,0,0,.12-.15C99,129.49,99.05,129.43,99.09,129.36Z" transform="translate(-28.63 -46.88)"/><path class="cls-1" d="M154.48,146.08,143,143.22l-1-3.9a20.61,20.61,0,0,0,5.79-11.49,4.48,4.48,0,0,0,3.24-3.76l.75-6a4.46,4.46,0,0,0-1.07-3.5,4.55,4.55,0,0,0-1.79-1.25l.27-5.63,1.12-1.12c1.69-1.8,3.08-4.87.16-9.33-2.24-3.42-6-5.16-11.33-5.16a19.72,19.72,0,0,0-11.34,3c-12.74.27-14.48,6.19-14.48,12,0,1.34.33,4.37.54,6.19a4.49,4.49,0,0,0-3.1,4.83l.75,6a4.52,4.52,0,0,0,3.6,3.85,20.74,20.74,0,0,0,5.5,11.13l-1,4.17-11.46,2.86A16.81,16.81,0,0,0,95.41,162.4a1.5,1.5,0,0,0,1.5,1.5h68.81a1.5,1.5,0,0,0,1.49-1.5A16.8,16.8,0,0,0,154.48,146.08Zm-56,14.83A13.82,13.82,0,0,1,108.88,149l12.32-3.09a1.51,1.51,0,0,0,1.1-1.08l1.46-5.87a1.46,1.46,0,0,0-.43-1.45A17.51,17.51,0,0,1,118,126.38a1.51,1.51,0,0,0-1.5-1.37H116a1.49,1.49,0,0,1-1.48-1.31l-.75-6a1.49,1.49,0,0,1,.37-1.18,1.45,1.45,0,0,1,1.12-.51h.31a1.49,1.49,0,0,0,1.12-.5,1.52,1.52,0,0,0,.36-1.18c-.19-1.53-.7-5.83-.7-7.29,0-4.67.92-8.86,12-9a1.53,1.53,0,0,0,.85-.27c3.34-2.39,6.92-2.72,10-2.72,4.21,0,7.17,1.29,8.83,3.81,2,3,1.13,4.61.19,5.61L146.71,106a1.5,1.5,0,0,0-.44,1l-.36,7.49a1.47,1.47,0,0,0,.41,1.09,1.44,1.44,0,0,0,1.07.47,1.5,1.5,0,0,1,1.47,1.68l-.75,6a1.55,1.55,0,0,1-1.63,1.31,1.51,1.51,0,0,0-1.5,1.37,17.41,17.41,0,0,1-5.6,11.34,1.48,1.48,0,0,0-.45,1.47l1.4,5.63a1.51,1.51,0,0,0,1.09,1.08L153.75,149a13.8,13.8,0,0,1,10.39,11.92Z" transform="translate(-28.63 -46.88)"/></svg>