<svg id="Mail" xmlns="http://www.w3.org/2000/svg" viewBox="0 0 207.57 158.11"><defs><style>.cls-1{fill:#56c2f0;}</style></defs><g id="Mail-2" data-name="Mail"><path class="cls-1" d="M213.54,48.94H42.46A18.28,18.28,0,0,0,24.21,67.19V188.81a18.28,18.28,0,0,0,18.25,18.25H213.54a18.27,18.27,0,0,0,18.25-18.25V67.19A18.28,18.28,0,0,0,213.54,48.94ZM211,61.11l-82.63,82.63L45,61.11ZM36.38,186.29V69.65L95,127.72Zm8.6,8.6,58.61-58.61,20.53,20.36a6.1,6.1,0,0,0,8.59,0l20-20L211,194.89Zm174.64-8.6L161.33,128l58.29-58.29Z" transform="translate(-24.21 -48.94)"/></g></svg>