<svg xmlns="http://www.w3.org/2000/svg" viewBox="0 0 125.29 125.29"><defs><style>.cls-1{fill:#56c2f0;}.cls-2{fill:none;stroke:#56c2f0;stroke-linecap:round;stroke-linejoin:round;stroke-width:4px;}</style></defs><g id="Calque_4" data-name="Calque 4"><path class="cls-1" d="M93.34,118.1a9.9,9.9,0,1,0,9.91,9.9A9.9,9.9,0,0,0,93.34,118.1Zm0,18.49a8.59,8.59,0,1,1,8.6-8.59A8.59,8.59,0,0,1,93.34,136.59Z" transform="translate(-65.36 -65.36)"/><path class="cls-1" d="M128,118.1a9.9,9.9,0,1,0,9.9,9.9A9.9,9.9,0,0,0,128,118.1Zm0,18.49a8.59,8.59,0,1,1,8.59-8.59A8.58,8.58,0,0,1,128,136.59Z" transform="translate(-65.36 -65.36)"/><path class="cls-1" d="M162.66,118.1a9.9,9.9,0,1,0,9.9,9.9A9.91,9.91,0,0,0,162.66,118.1Zm0,18.49a8.59,8.59,0,1,1,8.59-8.59A8.59,8.59,0,0,1,162.66,136.59Z" transform="translate(-65.36 -65.36)"/><path class="cls-2" d="M178,93.62a60.68,60.68,0,0,1-.39,69.32" transform="translate(-65.36 -65.36)"/><path class="cls-2" d="M93.62,78a60.68,60.68,0,0,1,68.76,0" transform="translate(-65.36 -65.36)"/><path class="cls-2" d="M78.6,163.19A60.69,60.69,0,0,1,78,93.62" transform="translate(-65.36 -65.36)"/><path class="cls-2" d="M163,177.57a60.71,60.71,0,0,1-70.14-.17" transform="translate(-65.36 -65.36)"/><path class="cls-1" d="M128,118.1a9.9,9.9,0,1,0,9.9,9.9A9.9,9.9,0,0,0,128,118.1Zm0,18.49a8.59,8.59,0,1,1,8.59-8.59A8.58,8.58,0,0,1,128,136.59Z" transform="translate(-65.36 -65.36)"/><path class="cls-1" d="M162.66,118.1a9.9,9.9,0,1,0,9.9,9.9A9.91,9.91,0,0,0,162.66,118.1Zm0,18.49a8.59,8.59,0,1,1,8.59-8.59A8.59,8.59,0,0,1,162.66,136.59Z" transform="translate(-65.36 -65.36)"/><circle class="cls-1" cx="27.99" cy="62.64" r="5.36"/><circle class="cls-1" cx="62.64" cy="62.64" r="5.36"/><circle class="cls-1" cx="97.3" cy="62.64" r="5.36"/></g></svg>