<svg id="Poster" xmlns="http://www.w3.org/2000/svg" viewBox="0 0 174.94 174.94"><defs><style>.cls-1{fill:#56c2f0;}</style></defs><g id="Icons"><path class="cls-1" d="M213,215.47H43a2.5,2.5,0,0,1-2.5-2.5V43a2.5,2.5,0,0,1,2.5-2.5H213a2.5,2.5,0,0,1,2.5,2.5V213A2.5,2.5,0,0,1,213,215.47Zm-167.44-5H210.47V45.53H45.53Z" transform="translate(-40.53 -40.53)"/><path class="cls-1" d="M110.51,150.49A2.5,2.5,0,0,1,108,148V68a2.49,2.49,0,0,1,2.5-2.5A2.53,2.53,0,0,1,112,66l55,40a2.52,2.52,0,0,1,.55,3.5,2.87,2.87,0,0,1-.55.55l-55,40A2.53,2.53,0,0,1,110.51,150.49ZM113,72.93v70.16L161.24,108Z" transform="translate(-40.53 -40.53)"/><path class="cls-1" d="M71.86,198H58a7.5,7.5,0,0,1,0-15H71.86v5H58a2.5,2.5,0,0,0,0,5H71.86Z" transform="translate(-40.53 -40.53)"/><path class="cls-1" d="M198,198H89.17v-5H198a2.5,2.5,0,0,0,0-5H89.17v-5H198a7.5,7.5,0,0,1,0,15Z" transform="translate(-40.53 -40.53)"/><path class="cls-1" d="M80.52,203A12.5,12.5,0,1,1,93,190.48,12.5,12.5,0,0,1,80.52,203Zm0-20a7.5,7.5,0,1,0,7.49,7.5A7.5,7.5,0,0,0,80.52,183Z" transform="translate(-40.53 -40.53)"/></g></svg>