<svg xmlns="http://www.w3.org/2000/svg" viewBox="0 0 168.74 168.74"><defs><style>.cls-1{fill:#273066;}.cls-2{fill:#56c2f0;}</style></defs><g id="next_page_right"><g id="next_page_right-2" data-name="next_page_right"><path class="cls-1" d="M71,136.89a1.5,1.5,0,0,1-1.5-1.5V121.08a1.5,1.5,0,1,1,3,0v14.31A1.5,1.5,0,0,1,71,136.89Z" transform="translate(-43.63 -43.63)"/><path class="cls-1" d="M82.42,136.89a1.5,1.5,0,0,1-1.5-1.5V121.08a1.5,1.5,0,0,1,3,0v14.31A1.51,1.51,0,0,1,82.42,136.89Z" transform="translate(-43.63 -43.63)"/><path class="cls-1" d="M93.83,136.89a1.5,1.5,0,0,1-1.5-1.5V121.08a1.5,1.5,0,0,1,3,0v14.31A1.5,1.5,0,0,1,93.83,136.89Z" transform="translate(-43.63 -43.63)"/><path class="cls-1" d="M152.79,145.82a1.5,1.5,0,0,1-1.5-1.5v-7.43H105a1.51,1.51,0,0,1-1.5-1.5V121.08a1.5,1.5,0,0,1,1.5-1.5h46.33v-7.43a1.53,1.53,0,0,1,.7-1.27,1.51,1.51,0,0,1,1.44-.09l34.26,16.09a1.5,1.5,0,0,1,0,2.71l-34.26,16.09A1.57,1.57,0,0,1,152.79,145.82Zm-46.33-11.93h46.33a1.5,1.5,0,0,1,1.5,1.5V142l29.23-13.73-29.23-13.72v6.57a1.5,1.5,0,0,1-1.5,1.5H106.46Z" transform="translate(-43.63 -43.63)"/><path class="cls-2" d="M59.62,176.33a1.51,1.51,0,0,1-1.24-.65,84.43,84.43,0,0,1-.55-94.54,1.5,1.5,0,1,1,2.49,1.67A81.41,81.41,0,0,0,60.86,174a1.52,1.52,0,0,1-.39,2.09A1.49,1.49,0,0,1,59.62,176.33Z" transform="translate(-43.63 -43.63)"/><path class="cls-2" d="M128,212.37a83.94,83.94,0,0,1-47.68-14.75,1.5,1.5,0,1,1,1.7-2.48,81.41,81.41,0,0,0,94-1.41,1.5,1.5,0,1,1,1.77,2.42A83.72,83.72,0,0,1,128,212.37Z" transform="translate(-43.63 -43.63)"/><path class="cls-2" d="M194.82,178.52a1.43,1.43,0,0,1-.88-.29,1.5,1.5,0,0,1-.32-2.1,81.4,81.4,0,0,0,.55-95.49,1.51,1.51,0,0,1,.35-2.1,1.49,1.49,0,0,1,2.09.35,84.4,84.4,0,0,1-.58,99A1.49,1.49,0,0,1,194.82,178.52Z" transform="translate(-43.63 -43.63)"/><path class="cls-2" d="M176.24,62.11a1.48,1.48,0,0,1-.87-.28,81.41,81.41,0,0,0-92.72-1.4A1.5,1.5,0,0,1,81,57.94a84.4,84.4,0,0,1,96.13,1.45,1.5,1.5,0,0,1-.87,2.72Z" transform="translate(-43.63 -43.63)"/></g></g></svg>