<svg xmlns="http://www.w3.org/2000/svg" viewBox="0 0 168.75 168.74"><defs><style>.cls-1{fill:#273066;}.cls-2{fill:#56c2f0;}</style></defs><g id="next_page_right"><g id="next_page_left"><path class="cls-1" d="M187.05,136.89a1.5,1.5,0,0,1-1.5-1.5V121.08a1.5,1.5,0,1,1,3,0v14.31A1.5,1.5,0,0,1,187.05,136.89Z" transform="translate(-45.68 -43.63)"/><path class="cls-1" d="M175.63,136.89a1.51,1.51,0,0,1-1.5-1.5V121.08a1.5,1.5,0,1,1,3,0v14.31A1.5,1.5,0,0,1,175.63,136.89Z" transform="translate(-45.68 -43.63)"/><path class="cls-1" d="M164.22,136.89a1.5,1.5,0,0,1-1.5-1.5V121.08a1.5,1.5,0,0,1,3,0v14.31A1.5,1.5,0,0,1,164.22,136.89Z" transform="translate(-45.68 -43.63)"/><path class="cls-1" d="M105.26,145.82a1.57,1.57,0,0,1-.64-.14L70.36,129.59a1.5,1.5,0,0,1,0-2.71l34.26-16.09a1.51,1.51,0,0,1,1.44.09,1.53,1.53,0,0,1,.7,1.27v7.43h46.33a1.5,1.5,0,0,1,1.5,1.5v14.31a1.5,1.5,0,0,1-1.5,1.5H106.76v7.43a1.5,1.5,0,0,1-1.5,1.5ZM74.53,128.23,103.76,142v-6.57a1.5,1.5,0,0,1,1.5-1.5h46.33V122.58H105.26a1.5,1.5,0,0,1-1.5-1.5v-6.57Z" transform="translate(-45.68 -43.63)"/><path class="cls-2" d="M198.43,176.33a1.49,1.49,0,0,1-.85-.26,1.5,1.5,0,0,1-.38-2.09,81.44,81.44,0,0,0,.53-91.17,1.5,1.5,0,1,1,2.49-1.67,84.43,84.43,0,0,1-.55,94.54A1.51,1.51,0,0,1,198.43,176.33Z" transform="translate(-45.68 -43.63)"/><path class="cls-2" d="M130.05,212.37A83.72,83.72,0,0,1,80.3,196.15a1.5,1.5,0,1,1,1.77-2.42,81.41,81.41,0,0,0,94,1.41,1.5,1.5,0,1,1,1.7,2.48A83.92,83.92,0,0,1,130.05,212.37Z" transform="translate(-45.68 -43.63)"/><path class="cls-2" d="M63.23,178.52a1.49,1.49,0,0,1-1.21-.61,84.4,84.4,0,0,1-.58-99,1.5,1.5,0,1,1,2.44,1.75,81.38,81.38,0,0,0,.56,95.49,1.51,1.51,0,0,1-.32,2.1A1.48,1.48,0,0,1,63.23,178.52Z" transform="translate(-45.68 -43.63)"/><path class="cls-2" d="M81.81,62.11a1.5,1.5,0,0,1-.87-2.72,84.42,84.42,0,0,1,96.14-1.45,1.5,1.5,0,0,1-1.68,2.49,81.4,81.4,0,0,0-92.71,1.4A1.51,1.51,0,0,1,81.81,62.11Z" transform="translate(-45.68 -43.63)"/></g></g></svg>