<svg id="Phone" xmlns="http://www.w3.org/2000/svg" viewBox="0 0 174.34 174.34"><defs><style>.cls-1{fill:#56c2f0;}</style></defs><g id="Phone-2" data-name="Phone"><path class="cls-1" d="M215.81,215.17,203.37,173a87.26,87.26,0,0,0,12.38-45c0-48-38.94-87.14-86.8-87.14S41.47,80,41.47,128,81,215.11,129,215.11a86.48,86.48,0,0,0,44.69-12.38Zm-22.29-45.66-1.25,2,8.44,28.6-28.6-8.44-2,1.25a76.3,76.3,0,0,1-41.19,12c-42.61,0-77.27-34.51-77.27-76.93S86.34,51,129,51c42.23,0,76.58,34.51,76.58,76.93A76.94,76.94,0,0,1,193.52,169.51Z" transform="translate(-41.47 -40.83)"/><path class="cls-1" d="M83.27,111.91A77,77,0,0,0,145,173.65c10.14,1.93,25,2.23,32.3-5.05l4.06-4a10.85,10.85,0,0,0,0-15.33L165.15,133a10.83,10.83,0,0,0-15.33,0l-4.06,4.05a7.2,7.2,0,0,1-9.64,0l-16.18-16.85-.07-.08a6.36,6.36,0,0,1,0-9l4-4.06a10.83,10.83,0,0,0,0-15.33L107.7,75.55a10.86,10.86,0,0,0-15.33,0l-4.05,4.06h0C82.51,85.41,80.58,97.79,83.27,111.91ZM95.54,86.83c4.26-4.16,4-4.24,4.5-4.24a.62.62,0,0,1,.44.18C117.57,100,116.89,99,116.89,99.44a.61.61,0,0,1-.19.44l-4,4.06a16.55,16.55,0,0,0,0,23.39l16.18,16.87.08.07a17.4,17.4,0,0,0,24.11,0l4.06-4.05a.62.62,0,0,1,.89,0c17.09,17.18,16.4,16.17,16.4,16.66a.64.64,0,0,1-.18.45l-4.06,4c-2.78,2.78-11.63,4.44-23.17,2.24A66.77,66.77,0,0,1,93.3,110C91.1,98.46,92.76,89.61,95.54,86.83Z" transform="translate(-41.47 -40.83)"/></g></svg>