<svg xmlns="http://www.w3.org/2000/svg" viewBox="0 0 130.47 175.43"><defs><style>.cls-1{fill:#56c2f0;}</style></defs><g id="Director"><path class="cls-1" d="M128.27,40.29H128a65.3,65.3,0,0,0-65.22,65.23c0,19.72,10.08,35.1,21.31,50.42l43.83,59.77s41.42-56.24,44-59.77c11.23-15.32,21.31-30.7,21.31-50.42A65.3,65.3,0,0,0,128.27,40.29Zm35.37,109.57c-2.6,3.54-29.81,40.82-35.6,48.65L92.36,149.86C81.79,135.44,73,122.16,73,105.52a55,55,0,0,1,54.7-55H128a55,55,0,0,1,55,55C183,122.16,174.21,135.44,163.64,149.86Z" transform="translate(-62.77 -40.29)"/><path class="cls-1" d="M128,67.86a37.66,37.66,0,1,0,37.66,37.66A37.7,37.7,0,0,0,128,67.86Zm0,65a27.38,27.38,0,1,1,27.38-27.38A27.41,27.41,0,0,1,128,132.9Z" transform="translate(-62.77 -40.29)"/></g></svg>