<svg id="Poster" xmlns="http://www.w3.org/2000/svg" viewBox="0 0 137.76 165.07"><defs><style>.cls-1{fill:#56c2f0;}</style></defs><g id="Poster-2" data-name="Poster"><path class="cls-1" d="M196.85,48.33a4,4,0,0,0-.09-.5l-.06-.2v0s0-.06,0-.09,0,0,0,0a3.4,3.4,0,0,0-.26-.5.3.3,0,0,0,0-.08l-.12-.16-.12-.14a2.06,2.06,0,0,0-.29-.3l-.15-.12a.88.88,0,0,0-.15-.12l0,0a3.88,3.88,0,0,0-.45-.24l0,0h0l-.24-.08-.19-.06-.36-.08-.21,0a2.4,2.4,0,0,0-.28,0H62.3l-.28,0-.2,0a2.22,2.22,0,0,0-.37.09l-.19,0-.23.08h0l-.06,0a3.75,3.75,0,0,0-.44.24l0,0-.15.12-.15.12a2,2,0,0,0-.28.3.93.93,0,0,0-.13.15l-.12.16a.25.25,0,0,1,0,.07,3.4,3.4,0,0,0-.26.5v0s0,.07,0,.1v0a.76.76,0,0,0-.06.2,4,4,0,0,0-.09.5,1.23,1.23,0,0,1,0,.19s0,.08,0,.13V207.36s0,.08,0,.12,0,.13,0,.2a4.37,4.37,0,0,0,.09.5l.06.19v0s0,.06,0,.09,0,0,0,0a3,3,0,0,0,.26.5l0,.08.12.16.12.15a2.65,2.65,0,0,0,.29.29.86.86,0,0,0,.14.13l.15.12,0,0a3.25,3.25,0,0,0,.45.25l0,0h0l.22.08.19.06a.68.68,0,0,1,.13,0l.08,0a3.18,3.18,0,0,0,.62.07H193.72a3.2,3.2,0,0,0,.63-.07l.07,0,.13,0,.19-.06.23-.08h0l.06,0a3.83,3.83,0,0,0,.44-.25l0,0,.15-.12.15-.13a4,4,0,0,0,.29-.29l.12-.15.12-.16s0-.05,0-.08a3,3,0,0,0,.26-.5l0,0s0-.06,0-.09l0,0,.06-.19c0-.16.06-.32.08-.49a1.36,1.36,0,0,1,0-.2s0-.08,0-.12V48.65s0-.08,0-.12A1.36,1.36,0,0,0,196.85,48.33ZM75.73,147.84V191L65.49,200.2V55.82l10.24,9.23Zm98.17-31c-3.83,4.86-25.07,29.37-66.89,30.43,33.79-9,56.77-31.91,66.88-43.85Zm6.37,1.07V65.05l10.24-9.23V200.2L180.27,191ZM173.9,93.07c-4.47,6.24-37.29,49.36-91.8,51.48V66.81h91.8ZM82.1,151.68c49.86,8.55,80-13.92,91.8-25.53v63H82.1ZM185.39,51.84l-9.54,8.61H80.14L70.6,51.84ZM70.6,204.18l9.54-8.61h95.72l9.54,8.61Z" transform="translate(-59.12 -45.46)"/><path class="cls-1" d="M105.57,128.57a3.19,3.19,0,0,0,3.19,0l41.66-23.93a3.18,3.18,0,0,0,0-5.52L108.76,75.19a3.19,3.19,0,0,0-3.19,0A3.15,3.15,0,0,0,104,78v47.86A3.2,3.2,0,0,0,105.57,128.57Zm4.78-45.11,32.09,18.42L110.36,120.3Z" transform="translate(-59.12 -45.46)"/><path class="cls-1" d="M157.14,161.14H98.86a3.19,3.19,0,0,0,0,6.37h58.28a3.19,3.19,0,0,0,0-6.37Z" transform="translate(-59.12 -45.46)"/><path class="cls-1" d="M151.09,175.05H104.91a3.19,3.19,0,1,0,0,6.38h46.18a3.19,3.19,0,1,0,0-6.38Z" transform="translate(-59.12 -45.46)"/></g></svg>