<svg id="Video" xmlns="http://www.w3.org/2000/svg" viewBox="0 0 141.96 102.59"><defs><style>.cls-1{fill:#56c2f0;}</style></defs><g id="Video-2" data-name="Video"><path class="cls-1" d="M128.7,76.71h-.21a2.77,2.77,0,0,0-2.77,2.76h0a2.77,2.77,0,0,0,2.77,2.77h.2a2.78,2.78,0,0,0,2.78-2.76h0A2.77,2.77,0,0,0,128.7,76.71Z" transform="translate(-57.02 -76.71)"/><path class="cls-1" d="M196,93.93A20,20,0,0,0,182,79.7c-7-1.92-26.65-2.62-41.86-2.88a2.78,2.78,0,0,0-.1,5.55c21.07.35,35.45,1.3,40.51,2.68a14.45,14.45,0,0,1,10.1,10.29c2.73,10.34,2.76,32.44,2.76,32.66s0,22.32-2.76,32.66A14.45,14.45,0,0,1,180.57,171c-10.16,2.77-52.15,2.8-52.57,2.8s-42.41,0-52.57-2.8a14.45,14.45,0,0,1-10.1-10.29c-2.73-10.34-2.76-32.44-2.76-32.66s0-22.32,2.76-32.66a14.45,14.45,0,0,1,10.1-10.29c5.17-1.41,20-2.37,41.7-2.7a2.77,2.77,0,1,0-.08-5.54c-15.69.24-35.89.93-43.07,2.89A20,20,0,0,0,60,93.93C57.05,105,57,127.06,57,128s0,23,2.94,34.07A20,20,0,0,0,74,176.3c10.87,3,52.26,3,54,3s43.15,0,54-3a20,20,0,0,0,14-14.23C199,151,199,128.94,199,128S199,105,196,93.93Z" transform="translate(-57.02 -76.71)"/><path class="cls-1" d="M73.1,120.66a2.77,2.77,0,0,0-2.77,2.77V146a2.77,2.77,0,0,0,5.54,0v-22.6A2.77,2.77,0,0,0,73.1,120.66Z" transform="translate(-57.02 -76.71)"/><path class="cls-1" d="M73.1,108a2.77,2.77,0,0,0-2.77,2.78v0a2.77,2.77,0,0,0,5.54,0v0A2.77,2.77,0,0,0,73.1,108Z" transform="translate(-57.02 -76.71)"/><path class="cls-1" d="M150.49,126l-34.38-20a2.78,2.78,0,0,0-4.17,2.4v39.92a2.78,2.78,0,0,0,1.39,2.41,2.85,2.85,0,0,0,1.38.37,2.78,2.78,0,0,0,1.4-.38l34.38-20a2.78,2.78,0,0,0,0-4.8Zm-33,17.55v-30.3l26.08,15.15Z" transform="translate(-57.02 -76.71)"/></g></svg>